<?xml version="1.0" encoding="UTF-8"?><svg id="Layer_2" xmlns="http://www.w3.org/2000/svg" viewBox="0 0 1080 1080"><defs><style>.cls-1{fill:#ed232d;}.cls-2{fill:#1f3c73;}.cls-3{fill:#fff;opacity:0;}</style></defs><g id="Layer_1-2"><g><rect class="cls-3" width="1080" height="1080"/><g><path class="cls-2" d="M297.79,450.55s.05-.05,.05-.05c22.81-35.9,62.99-59.75,108.74-59.75,3.32,0,6.59,.13,9.82,.43,.1,0,.18-.06,.19-.15,9.74-61.51,63.02-108.53,127.25-108.53,49.89,0,93.18,28.34,114.55,69.87,6.18,11.87,10.54,24.87,12.71,38.62,.01,.09,.1,.16,.19,.15,3.05-.26,6.14-.39,9.24-.39,71.18,0,128.86,57.68,128.86,128.86,0,16.6-3.15,32.44-8.86,47.02-18.76,47.92-65.42,81.84-119.99,81.84-43.77,0-82.47-21.82-105.73-55.2,0,0,0,0,0,0l-41.43-50.7-2.43-3.01-56.1-68.66c-13.23-18.49-33.74-31.36-57.36-34.37-3.55-.54-7.2-.77-10.89-.77-7.51,0-14.8,.99-21.73,2.88-38.87,10.35-66.63,47.96-61.55,91.2,4.59,38.83,36.53,69.74,75.45,73.25,31.04,2.83,58.98-11.29,75.59-34.15,.23-.27,.4-.5,.54-.77,1.36-1.67,3.57-2.68,6-2.31,3.45,.53,5.69,4.01,5.4,7.49,0,.06,0,.11-.01,.17v.09c-.23,3.55-.63,7.11-1.17,10.57-4.68,30.68-28.43,55.16-58.8,61.73-7.06,1.53-13.95,2.56-19.71,2.56-71.18,0-128.85-57.72-128.85-128.86,0-25.42,7.38-49.09,20.07-69.06Zm213.89-5.49l40.58,49.67,1.53,1.84,30.37,37.16,27.98,34.24,.14,.18c15.12,21.37,40.09,35.27,68.25,35.27,14.49,0,28.16-3.69,40.09-10.21,28.48-15.48,46.93-46.97,43.33-82.38-4.32-42.65-41.53-75.63-84.4-75.09-3.1,.05-6.21,.27-9.27,.67-28.03,3.37-51.74,20.61-64.16,44.63-2.88,5.53-11.43,3.96-12.06-2.29-.05-.05-.05-.13-.05-.22-.54-4.63-.81-9.36-.81-14.13,0-6.48,.5-12.87,1.39-19.08,2.79-18.72,15.03-35.05,32.3-42.83l.27-.14c-.72-6.88-2.29-13.54-4.59-19.84-11.74-32.08-42.56-55.02-78.73-55.02-43.33,0-78.97,32.86-83.36,74.96,0,.08,.04,.16,.11,.19,20.51,9.45,38.1,24.14,51.08,42.42Z"/><path class="cls-2" d="M256.17,698.76c0-.76,.15-1.06,.91-1.21,3.77-.15,11.47-.45,26.42-.45,34.12,0,52.54,19.78,52.54,48.46,0,38.19-28.68,51.93-54.05,51.93-8.45,0-19.78-.15-25.06-.3-.61,0-.76-.45-.76-1.21v-97.22Zm12.53,87.08c0,.1,.06,.18,.16,.19,3.04,.15,8.07,.29,12.67,.29,24.31,0,41.52-13.28,41.67-40.61,0-25.06-17.21-37.44-40-37.44-5.22,0-9.99,.15-14.31,.3-.1,0-.18,.09-.18,.19v77.08Z"/><path class="cls-2" d="M378.43,765.79c-.08,0-.15,.05-.18,.12l-10.83,30.37c-.15,.6-.45,.91-1.21,.91h-10.26c-.76,0-1.05-.45-.91-1.21l32.91-91.63c.45-1.19,.89-2.23,1.05-6,.02-.51,.43-.95,.94-.95h14.61c.6,0,.76,.15,.91,.76l35.47,97.97c.3,.61,.15,1.06-.6,1.06h-11.47c-.61,0-.91-.3-1.21-.76l-10.98-30.52c-.03-.07-.1-.12-.18-.12h-38.08Zm34.48-11.62c.13,0,.23-.11,.18-.23-3.39-9.99-12.77-36.08-15.62-46.27h-.15c-2.55,9.61-9.74,29.69-15.46,46.25-.04,.12,.05,.24,.18,.24h30.88Z"/><path class="cls-2" d="M477.19,709.06c0-.1-.08-.19-.19-.19h-32.12c-.6,0-.91-.3-.76-1.06l1.51-9.51c.15-.61,.45-.91,1.21-.91h73.82c.76,0,1.06,.3,1.21,1.06l1.06,9.36c.15,.76-.15,1.06-.76,1.06h-32.12c-.1,0-.19,.08-.19,.19v86.92c0,.91-.3,1.21-1.05,1.21h-10.23c-.77,0-1.4-.62-1.4-1.4v-86.73Z"/><path class="cls-2" d="M550.1,765.79c-.08,0-.15,.05-.18,.12l-10.83,30.37c-.15,.6-.45,.91-1.21,.91h-10.26c-.76,0-1.05-.45-.91-1.21l32.91-91.63c.45-1.19,.89-2.23,1.05-6,.02-.51,.43-.95,.94-.95h14.61c.6,0,.76,.15,.91,.76l35.47,97.97c.3,.61,.15,1.06-.6,1.06h-11.47c-.61,0-.91-.3-1.21-.76l-10.97-30.52c-.03-.07-.1-.12-.18-.12h-38.08Zm34.48-11.62c.13,0,.23-.11,.18-.23-3.39-9.99-12.77-36.08-15.62-46.27h-.15c-2.56,9.61-9.74,29.69-15.47,46.25-.04,.12,.05,.24,.18,.24h30.88Z"/><path class="cls-1" d="M640.14,797.19c-.77,0-1.4-.62-1.4-1.4v-96.28c0-.75,.15-1.36,1.05-1.36,11.92-.3,18.27-.45,29.89-.45,24.16,0,38.35,10.42,38.35,29.74,0,13.05-8.35,22.37-19.26,26.49-.11,.04-.17,.16-.1,.25,5.15,7.21,23.01,33.86,27.36,41.34,.45,.91,.6,1.66-.3,1.66h-18.87c-1.21,0-1.66-.3-2.11-.76-4.38-6.79-14.95-24.15-21.59-34.72-1.06-1.81-1.81-2.57-3.48-2.57h-12.8c-.1,0-.19,.08-.19,.19v36.65c0,.91-.45,1.21-1.21,1.21h-15.36Zm29.7-53.59c12.23,0,20.07-5.43,20.07-15.1s-8-14.94-20.83-14.94c-5.02,0-9.76,.14-12.22,.29-.1,0-.16,.09-.16,.19v29.37c0,.1,.08,.19,.19,.19h12.95Z"/><path class="cls-1" d="M740.96,699.36c0-.76,.15-1.05,1.05-1.21,4.38-.15,14.64-.45,28.53-.45,35.47,0,53.29,20.08,53.29,48.16,0,36.83-28.08,51.63-53.59,51.63-9.51,0-23.4,0-28.23-.3-.6,0-1.05-.45-1.05-1.36v-96.47Zm18.26,81.95c0,.1,.08,.18,.18,.19,2.97,.14,6.24,.14,10.09,.14,21.28,0,35.62-12.38,35.62-35.33s-14.34-32.76-34.72-32.76c-4.16,0-7.44,.14-10.99,.3-.1,0-.18,.09-.18,.19v67.27Z"/></g></g></g></svg>