<svg xmlns="http://www.w3.org/2000/svg" width="732.682" height="686.15" viewBox="0 0 732.682 686.15">
  <g id="web_exploring" data-name="web exploring" transform="translate(-168.133 -91.564)">
    <circle id="Ellipse_457" data-name="Ellipse 457" cx="336.172" cy="336.172" r="336.172" transform="translate(212.838 91.563)" fill="#d9ebff"/>
    <rect id="Rectangle_295" data-name="Rectangle 295" width="75.274" height="75.274" transform="translate(560.556 664.417)" fill="#a9c0ff"/>
    <rect id="Rectangle_297" data-name="Rectangle 297" width="67.591" height="3.25" transform="translate(216.873 542.409)" fill="#a9c0ff"/>
    <rect id="Rectangle_298" data-name="Rectangle 298" width="67.591" height="3.25" transform="translate(214.415 522.473)" fill="#a9c0ff"/>
    <rect id="Rectangle_299" data-name="Rectangle 299" width="67.591" height="3.25" transform="translate(219.21 564.074)" fill="#a9c0ff"/>
    <rect id="Rectangle_300" data-name="Rectangle 300" width="67.591" height="3.25" transform="translate(707.697 201.046)" fill="#a9c0ff"/>
    <rect id="Rectangle_301" data-name="Rectangle 301" width="67.591" height="3.25" transform="translate(705.239 181.11)" fill="#a9c0ff"/>
    <rect id="Rectangle_302" data-name="Rectangle 302" width="67.591" height="3.25" transform="translate(710.035 222.711)" fill="#a9c0ff"/>
    <rect id="Rectangle_303" data-name="Rectangle 303" width="710.162" height="14.625" transform="translate(190.652 763.091)" fill="#456ba3"/>
    <circle id="Ellipse_459" data-name="Ellipse 459" cx="58.09" cy="58.09" r="58.09" transform="translate(539.43 110.929)" fill="#fff"/>
    <path id="Path_40916" data-name="Path 40916" d="M441.361,163.15c0,3.892-3.313,5.929-6.588,5.929s-6.588-2.037-6.588-5.929a1.143,1.143,0,0,1,1.143-1.143h10.89a1.143,1.143,0,0,1,1.143,1.143Zm0,0" transform="translate(162.527 44.026)" fill="#92b1ef"/>
    <path id="Path_40917" data-name="Path 40917" d="M448.818,155.013v8.1a6.184,6.184,0,0,1-6.182,6.181H431.052a6.184,6.184,0,0,1-6.182-6.181v-8.1a1.315,1.315,0,0,1,1.315-1.315H447.5a1.315,1.315,0,0,1,1.315,1.315Zm0,0" transform="translate(160.456 38.833)" fill="#4d76b8"/>
    <path id="Path_40918" data-name="Path 40918" d="M464.97,145.835a23.463,23.463,0,0,1-6.727,16.516,14.212,14.212,0,0,0-2.351,7.174c0,5.224-3.344,6.386-3.488,6.432a1.289,1.289,0,0,1-.41.067H431.027a1.314,1.314,0,0,1-.543-.118c-.763-.351-3.251-1.828-3.251-6.336v-.292c0-2.63,0-3.857-1.648-5.81a23.642,23.642,0,1,1,39.384-17.633Zm0,0" transform="translate(155.965 19.137)" fill="#92b1ef"/>
    <path id="Path_40919" data-name="Path 40919" d="M485.824,149.07H475.669a1.315,1.315,0,0,1,0-2.63h10.156a1.315,1.315,0,0,1,0,2.63Zm-19.177-20.433a1.315,1.315,0,0,1-.929-2.244l7.31-7.31a1.315,1.315,0,0,1,1.86,1.86l-7.317,7.308a1.312,1.312,0,0,1-.924.386ZM419.5,149.07H409.348a1.315,1.315,0,0,1,0-2.63H419.5a1.315,1.315,0,0,1,0,2.63Zm9.021-20.433a1.312,1.312,0,0,1-.929-.386l-7.31-7.31a1.315,1.315,0,1,1,1.86-1.86l7.31,7.31a1.315,1.315,0,0,1-.929,2.244Zm0,0" transform="translate(149.933 16.957)" fill="#92b1ef"/>
    <path id="Path_40920" data-name="Path 40920" d="M433.019,124.884a1.315,1.315,0,0,1-1.315-1.314V113.414a1.315,1.315,0,1,1,2.63,0v10.155a1.315,1.315,0,0,1-1.315,1.315Zm0,0" transform="translate(164.726 12.834)" fill="#92b1ef"/>
    <path id="Path_40921" data-name="Path 40921" d="M450.964,145.006a.876.876,0,0,1-.877-.877A17.355,17.355,0,0,0,432.753,126.8a.877.877,0,1,1,0-1.753A19.108,19.108,0,0,1,451.84,144.13a.877.877,0,0,1-.876.877Zm0,0" transform="translate(164.834 20.924)" fill="#d9ebff"/>
    <path id="Path_40922" data-name="Path 40922" d="M455.653,223.035a60.527,60.527,0,1,1,60.527-60.527A60.527,60.527,0,0,1,455.653,223.035Zm0-116.18a55.652,55.652,0,1,0,55.652,55.652,55.652,55.652,0,0,0-55.652-55.652Z" transform="translate(141.866 6.511)" fill="#4d76b8"/>
    <path id="Path_40923" data-name="Path 40923" d="M418.627,514.492V448.969a4.875,4.875,0,0,0-4.875-4.875H400.1a4.875,4.875,0,0,0-4.875,4.875v88.923a4.875,4.875,0,0,0,4.875,4.875h88.924a4.875,4.875,0,0,0,4.875-4.875v-13.65a4.875,4.875,0,0,0-4.875-4.875H423.5a4.875,4.875,0,0,1-4.875-4.875Z" transform="translate(141.929 220.324)" fill="#6299e8"/>
    <path id="Path_40924" data-name="Path 40924" d="M439.989,490.416v23.4h70.4a4.875,4.875,0,0,0,4.875-4.875v-13.65a4.875,4.875,0,0,0-4.875-4.875Z" transform="translate(169.904 249.275)" fill="#c2d5ff"/>
    <rect id="Rectangle_304" data-name="Rectangle 304" width="432.894" height="313.399" rx="6" transform="translate(352.058 351.019)" fill="#6299e8"/>
    <path id="Path_40925" data-name="Path 40925" d="M705.4,568H292.007a12.2,12.2,0,0,1-12.187-12.187v-293.9a12.2,12.2,0,0,1,12.187-12.187H705.4a12.2,12.2,0,0,1,12.187,12.187v293.9A12.2,12.2,0,0,1,705.4,568Zm-413.394-313.4a7.32,7.32,0,0,0-7.312,7.312v293.9a7.32,7.32,0,0,0,7.312,7.312H705.4a7.32,7.32,0,0,0,7.313-7.312v-293.9a7.32,7.32,0,0,0-7.312-7.312Z" transform="translate(69.802 98.851)" fill="#4d76b8"/>
    <rect id="Rectangle_305" data-name="Rectangle 305" width="432.894" height="313.399" rx="6" transform="translate(379.208 351.019)" fill="#fff"/>
    <rect id="Rectangle_306" data-name="Rectangle 306" width="367.407" height="249.071" rx="6" transform="translate(411.952 383.183)" fill="#d9ebff"/>
    <path id="Path_40926" data-name="Path 40926" d="M722.109,568H308.715a12.2,12.2,0,0,1-12.187-12.187v-293.9a12.2,12.2,0,0,1,12.187-12.187H722.109A12.2,12.2,0,0,1,734.3,261.918v293.9A12.2,12.2,0,0,1,722.109,568Zm-413.394-313.4a7.32,7.32,0,0,0-7.312,7.312v293.9a7.32,7.32,0,0,0,7.312,7.313H722.109a7.32,7.32,0,0,0,7.313-7.312v-293.9a7.32,7.32,0,0,0-7.312-7.312Z" transform="translate(80.244 98.851)" fill="#4d76b8"/>
    <path id="Path_40927" data-name="Path 40927" d="M675.834,271.024H327.927a9.75,9.75,0,0,0-9.75,9.75v26.848H685.584V280.774A9.75,9.75,0,0,0,675.834,271.024Z" transform="translate(93.775 112.159)" fill="#a9c0ff"/>
    <path id="Path_40928" data-name="Path 40928" d="M318.177,405.153v21.363a9.75,9.75,0,0,0,9.75,9.75H675.834a9.75,9.75,0,0,0,9.75-9.75V405.153Z" transform="translate(93.775 195.987)" fill="#a9c0ff"/>
    <rect id="Rectangle_307" data-name="Rectangle 307" width="128.699" height="3.25" transform="translate(439.008 441.039)" fill="#456ba3"/>
    <rect id="Rectangle_308" data-name="Rectangle 308" width="128.699" height="3.25" transform="translate(439.008 468.8)" fill="#456ba3"/>
    <rect id="Rectangle_309" data-name="Rectangle 309" width="313.816" height="3.25" transform="translate(439.008 496.559)" fill="#456ba3"/>
    <rect id="Rectangle_310" data-name="Rectangle 310" width="313.816" height="3.25" transform="translate(439.008 524.319)" fill="#456ba3"/>
    <rect id="Rectangle_311" data-name="Rectangle 311" width="313.816" height="3.25" transform="translate(439.008 552.078)" fill="#456ba3"/>
    <rect id="Rectangle_312" data-name="Rectangle 312" width="313.816" height="3.25" transform="translate(439.008 579.838)" fill="#456ba3"/>
    <g id="Group_609" data-name="Group 609" transform="translate(612.64 290.028)" opacity="0.28">
      <rect id="Rectangle_313" data-name="Rectangle 313" width="255.797" height="185.187" rx="6" fill="#6299e8"/>
    </g>
    <rect id="Rectangle_314" data-name="Rectangle 314" width="255.797" height="185.187" rx="6" transform="translate(637.21 265.972)" fill="#fff"/>
    <rect id="Rectangle_315" data-name="Rectangle 315" width="255.797" height="4.875" transform="translate(637.21 306.799)" fill="#a9c0ff"/>
    <path id="Path_40929" data-name="Path 40929" d="M703.784,387.454h-236.3A12.2,12.2,0,0,1,455.3,375.267V209.58a12.2,12.2,0,0,1,12.187-12.187h236.3a12.2,12.2,0,0,1,12.187,12.187V375.267A12.2,12.2,0,0,1,703.784,387.454Zm-236.3-185.186a7.32,7.32,0,0,0-7.312,7.312V375.267a7.32,7.32,0,0,0,7.312,7.312h236.3a7.32,7.32,0,0,0,7.312-7.312V209.58a7.32,7.32,0,0,0-7.312-7.312Z" transform="translate(179.473 66.141)" fill="#4d76b8"/>
    <rect id="Rectangle_316" data-name="Rectangle 316" width="81.42" height="81.42" rx="2" transform="translate(666.245 322.768)" fill="#d9ebff"/>
    <rect id="Rectangle_317" data-name="Rectangle 317" width="98.279" height="21.567" rx="2" transform="translate(759.258 322.768)" fill="#a9c0ff"/>
    <rect id="Rectangle_318" data-name="Rectangle 318" width="56.333" height="12.362" rx="2" transform="translate(731.092 421.554)" fill="#a9c0ff"/>
    <rect id="Rectangle_319" data-name="Rectangle 319" width="98.279" height="21.567" rx="2" transform="translate(759.258 352.695)" fill="#a9c0ff"/>
    <rect id="Rectangle_320" data-name="Rectangle 320" width="98.279" height="21.567" rx="2" transform="translate(759.258 382.621)" fill="#a9c0ff"/>
    <g id="Group_610" data-name="Group 610" transform="translate(251.31 207.899)" opacity="0.28">
      <rect id="Rectangle_321" data-name="Rectangle 321" width="255.797" height="185.187" rx="6" fill="#6299e8"/>
    </g>
    <rect id="Rectangle_322" data-name="Rectangle 322" width="255.797" height="185.187" rx="6" transform="translate(214.386 183.843)" fill="#fff"/>
    <rect id="Rectangle_323" data-name="Rectangle 323" width="255.797" height="4.875" transform="translate(214.386 224.67)" fill="#a9c0ff"/>
    <path id="Path_40930" data-name="Path 40930" d="M443.581,336.913h-236.3A12.2,12.2,0,0,1,195.1,324.726V159.039a12.2,12.2,0,0,1,12.187-12.187h236.3a12.2,12.2,0,0,1,12.187,12.187V324.726a12.2,12.2,0,0,1-12.187,12.187Zm-236.3-185.187a7.32,7.32,0,0,0-7.312,7.312V324.726a7.32,7.32,0,0,0,7.312,7.312h236.3a7.32,7.32,0,0,0,7.312-7.312V159.039a7.32,7.32,0,0,0-7.312-7.312Z" transform="translate(16.852 34.554)" fill="#4d76b8"/>
    <rect id="Rectangle_324" data-name="Rectangle 324" width="185.763" height="21.567" rx="2" transform="translate(249.403 245.514)" fill="#a9c0ff"/>
    <rect id="Rectangle_325" data-name="Rectangle 325" width="185.763" height="21.567" rx="2" transform="translate(249.403 275.441)" fill="#a9c0ff"/>
    <rect id="Rectangle_326" data-name="Rectangle 326" width="185.763" height="4.875" transform="translate(249.402 311.674)" fill="#4d76b8"/>
    <rect id="Rectangle_327" data-name="Rectangle 327" width="185.763" height="4.875" transform="translate(249.402 325.206)" fill="#4d76b8"/>
    <rect id="Rectangle_328" data-name="Rectangle 328" width="185.763" height="4.875" transform="translate(249.402 338.738)" fill="#4d76b8"/>
    <path id="Path_40931" data-name="Path 40931" d="M588.7,258.752A13.148,13.148,0,1,1,601.848,245.6,13.148,13.148,0,0,1,588.7,258.752Zm0-21.421a8.273,8.273,0,1,0,8.273,8.273,8.273,8.273,0,0,0-8.273-8.273Z" transform="translate(254.629 88.055)" fill="#4d76b8"/>
    <path id="Path_40935" data-name="Path 40935" d="M185.308,326.737a8.07,8.07,0,0,1-1.421-11.719l34.817-42.1a3.71,3.71,0,0,1,5.042-.614L238.921,283.4a3.712,3.712,0,0,1,.947,5l-29.577,45.9a8.072,8.072,0,0,1-11.563,2.217l-13.42-9.781Zm0,0" transform="translate(8.661 112.511)" fill="#618ac6"/>
    <path id="Path_40936" data-name="Path 40936" d="M185.316,326.724a8.078,8.078,0,0,1-1.441-11.716l34.84-42.091a3.688,3.688,0,0,1,5.033-.6l15.171,11.073a3.961,3.961,0,0,1,1.017,1.1L234.2,280.3a3.707,3.707,0,0,0-5.028.633l-34.839,42.091a8.022,8.022,0,0,0-.168,10.157l-8.851-6.457Zm0,0" transform="translate(8.661 112.511)" fill="#92b1ef"/>
    <rect id="Rectangle_336" data-name="Rectangle 336" width="166.353" height="166.353" transform="matrix(0.988, -0.154, 0.154, 0.988, 168.133, 289.227)" fill="none"/>
    <path id="Path_40937" data-name="Path 40937" d="M230.287,274.786l-7.7,12.292-14.418-10.717,9.214-10.884Zm-12.9-9.31" transform="translate(25.023 108.692)" fill="#4469a0"/>
    <path id="Path_40938" data-name="Path 40938" d="M320.186,252.7a59.209,59.209,0,1,0-49.367,67.632A59.209,59.209,0,0,0,320.186,252.7Zm-51.837,52.454a43.881,43.881,0,1,1,36.578-50.131,43.881,43.881,0,0,1-36.578,50.131Z" transform="translate(21.459 69.401)" fill="#618ac6"/>
  </g>
</svg>
